<mxfile host="app.diagrams.net" modified="2023-10-20T14:01:52.540Z" agent="Mozilla/5.0 (Macintosh; Intel Mac OS X 10_15_7) AppleWebKit/537.36 (KHTML, like Gecko) Chrome/117.0.0.0 Safari/537.36" etag="4dNi1ZV6TqlmVx4Kjork" version="22.0.5" type="device">
  <diagram name="Page-1" id="LIyLG6xYoGgM60vwBTp4">
    <mxGraphModel dx="1306" dy="689" grid="1" gridSize="10" guides="1" tooltips="1" connect="1" arrows="1" fold="1" page="1" pageScale="1" pageWidth="850" pageHeight="1100" math="0" shadow="0">
      <root>
        <mxCell id="0" />
        <mxCell id="1" parent="0" />
        <mxCell id="1xSIMsVhXIoJeMGgvjXP-1" value="users" style="rounded=0;whiteSpace=wrap;html=1;" vertex="1" parent="1">
          <mxGeometry x="110" y="150" width="120" height="60" as="geometry" />
        </mxCell>
        <mxCell id="1xSIMsVhXIoJeMGgvjXP-2" value="LB" style="rhombus;whiteSpace=wrap;html=1;" vertex="1" parent="1">
          <mxGeometry x="330" y="160" width="80" height="80" as="geometry" />
        </mxCell>
        <mxCell id="1xSIMsVhXIoJeMGgvjXP-3" value="" style="endArrow=classic;html=1;rounded=0;" edge="1" parent="1">
          <mxGeometry width="50" height="50" relative="1" as="geometry">
            <mxPoint x="240" y="200" as="sourcePoint" />
            <mxPoint x="330" y="200" as="targetPoint" />
          </mxGeometry>
        </mxCell>
        <mxCell id="1xSIMsVhXIoJeMGgvjXP-4" value="API gateway/middleware" style="rounded=0;whiteSpace=wrap;html=1;" vertex="1" parent="1">
          <mxGeometry x="480" y="170" width="120" height="60" as="geometry" />
        </mxCell>
        <mxCell id="1xSIMsVhXIoJeMGgvjXP-5" value="" style="endArrow=classic;html=1;rounded=0;exitX=1;exitY=0.5;exitDx=0;exitDy=0;" edge="1" parent="1" source="1xSIMsVhXIoJeMGgvjXP-2">
          <mxGeometry width="50" height="50" relative="1" as="geometry">
            <mxPoint x="430" y="250" as="sourcePoint" />
            <mxPoint x="480" y="200" as="targetPoint" />
          </mxGeometry>
        </mxCell>
        <mxCell id="1xSIMsVhXIoJeMGgvjXP-6" value="tweet service" style="rounded=0;whiteSpace=wrap;html=1;" vertex="1" parent="1">
          <mxGeometry x="670" y="140" width="120" height="60" as="geometry" />
        </mxCell>
        <mxCell id="1xSIMsVhXIoJeMGgvjXP-7" value="Tweet Db" style="ellipse;whiteSpace=wrap;html=1;" vertex="1" parent="1">
          <mxGeometry x="660" y="20" width="120" height="80" as="geometry" />
        </mxCell>
        <mxCell id="1xSIMsVhXIoJeMGgvjXP-8" value="" style="endArrow=classic;html=1;rounded=0;exitX=0.5;exitY=0;exitDx=0;exitDy=0;" edge="1" parent="1" source="1xSIMsVhXIoJeMGgvjXP-6">
          <mxGeometry width="50" height="50" relative="1" as="geometry">
            <mxPoint x="680" y="150" as="sourcePoint" />
            <mxPoint x="730" y="100" as="targetPoint" />
          </mxGeometry>
        </mxCell>
        <mxCell id="1xSIMsVhXIoJeMGgvjXP-9" value="Trending service" style="rounded=0;whiteSpace=wrap;html=1;" vertex="1" parent="1">
          <mxGeometry x="670" y="280" width="120" height="60" as="geometry" />
        </mxCell>
        <mxCell id="1xSIMsVhXIoJeMGgvjXP-10" value="" style="endArrow=classic;html=1;rounded=0;exitX=1;exitY=0.75;exitDx=0;exitDy=0;" edge="1" parent="1" source="1xSIMsVhXIoJeMGgvjXP-4">
          <mxGeometry width="50" height="50" relative="1" as="geometry">
            <mxPoint x="620" y="210" as="sourcePoint" />
            <mxPoint x="670" y="160" as="targetPoint" />
          </mxGeometry>
        </mxCell>
        <mxCell id="1xSIMsVhXIoJeMGgvjXP-11" value="" style="endArrow=classic;html=1;rounded=0;exitX=0.433;exitY=1.033;exitDx=0;exitDy=0;exitPerimeter=0;" edge="1" parent="1" source="1xSIMsVhXIoJeMGgvjXP-6">
          <mxGeometry width="50" height="50" relative="1" as="geometry">
            <mxPoint x="780" y="280" as="sourcePoint" />
            <mxPoint x="722" y="270" as="targetPoint" />
          </mxGeometry>
        </mxCell>
        <mxCell id="1xSIMsVhXIoJeMGgvjXP-12" value="Async -&amp;gt; KAFKA" style="text;html=1;align=center;verticalAlign=middle;resizable=0;points=[];autosize=1;strokeColor=none;fillColor=none;" vertex="1" parent="1">
          <mxGeometry x="685" y="218" width="110" height="30" as="geometry" />
        </mxCell>
        <mxCell id="1xSIMsVhXIoJeMGgvjXP-13" value="" style="endArrow=classic;html=1;rounded=0;exitX=0.5;exitY=1;exitDx=0;exitDy=0;" edge="1" parent="1" source="1xSIMsVhXIoJeMGgvjXP-4">
          <mxGeometry width="50" height="50" relative="1" as="geometry">
            <mxPoint x="620" y="350" as="sourcePoint" />
            <mxPoint x="670" y="300" as="targetPoint" />
          </mxGeometry>
        </mxCell>
        <mxCell id="1xSIMsVhXIoJeMGgvjXP-14" value="cache&lt;br&gt;sortedSet&lt;br&gt;Redis" style="rounded=0;whiteSpace=wrap;html=1;" vertex="1" parent="1">
          <mxGeometry x="680" y="390" width="120" height="60" as="geometry" />
        </mxCell>
        <mxCell id="1xSIMsVhXIoJeMGgvjXP-15" value="" style="endArrow=classic;html=1;rounded=0;exitX=0.425;exitY=1.083;exitDx=0;exitDy=0;exitPerimeter=0;entryX=0.375;entryY=-0.017;entryDx=0;entryDy=0;entryPerimeter=0;" edge="1" parent="1" source="1xSIMsVhXIoJeMGgvjXP-9" target="1xSIMsVhXIoJeMGgvjXP-14">
          <mxGeometry width="50" height="50" relative="1" as="geometry">
            <mxPoint x="800" y="380" as="sourcePoint" />
            <mxPoint x="850" y="330" as="targetPoint" />
          </mxGeometry>
        </mxCell>
      </root>
    </mxGraphModel>
  </diagram>
</mxfile>
